:SAMPLES-PER-SECOND 30
:FULLY-SPECIFIED
:DEGREES
1
root  34.87035796 36.59212308 -14.1476939 9.764431953 -3.997555017 3.101568699
lowerback  -9.524653435 -0.02967121638 -0.1885412186
upperback  -3.383697748 0.4390003979 -3.27418375
thorax  1.834800005 0.3794943094 -3.23939991
lowerneck  -14.6026001 -5.717269897 -4.613949776
upperneck  16.6480999 -8.051859856 7.975739956
head  8.08440876 -3.205569744 2.500449896
lclavicle  0 -4.497500157e-015 -2.743230041e-014
lhumerus  -48.23720169 31.89629936 63.08499908
lradius  0.001172923949 -6.507048965e-006 29.55398178
lwrist  3.192251654e-007 -3.790274832e-007 -29.18780136
lhand  -4.413167194e-031 -36.85710144 -10.38479996
lfingers  90 7.125020027 -90
lthumb  94.73460718 -25.22747468 100.9968456
rclavicle  0 -4.497500157e-015 -2.743230041e-014
rhumerus  -54.24520111 -44.83819962 -46.34120178
rradius  -5.16745672e-007 2.214343908e-008 33.70729828
rwrist  0.0003490542294 -0.002273720223 -138.2189941
rhand  -3.535513218e-031 -2.854949951 -7.66711998
rfingers  -90 -7.125020027 -90
rthumb  -86.61206786 -7.981945253 -66.91035963
rfemur  -10.60072327 14.94765282 12.74076176
rtibia  0.3599592745 -0.9998339415 17.3639946
rfoot  1.65022099 -21.720644 -35.37063599
rtoes  4.138733712 19.58426543 -102.1819001
lfemur  -4.001526833 -15.83631897 -21.95119095
ltibia  6.399809361 0.1012428105 7.759108543
lfoot  0.2635397017 -22.3278904 35.92039108
ltoes  -8.724062091 -18.06748907 -116.3255407
2
root  34.87061027 36.59073537 -14.14657803 9.754439354 -3.985249758 3.101568699
lowerback  -9.563412666 -0.02967121638 -0.2044533044
upperback  -3.383697748 0.4390003979 -3.27418375
thorax  1.85935998 0.3794943094 -3.220849991
lowerneck  -14.58440018 -5.727759838 -4.651150227
upperneck  16.63290024 -8.062649727 8.001919746
head  8.08440876 -3.211410046 2.514230013
lclavicle  0 -4.497500157e-015 -2.743230041e-014
lhumerus  -48.25839996 31.86829948 63.10300064
lradius  0.001172923949 -6.507048965e-006 29.5670166
lwrist  3.192251654e-007 -3.790274832e-007 -29.18160057
lhand  -4.413426916e-031 -36.86159897 -10.43980026
lfingers  90 7.125020027 -90
lthumb  94.74829025 -25.28130286 101.0065857
rclavicle  0 -4.497500157e-015 -2.743230041e-014
rhumerus  -54.18509674 -44.80089951 -46.43510437
rradius  -5.16745672e-007 2.214343908e-008 33.69070053
rwrist  0.0003490542294 -0.002273720223 -138.1580048
rhand  -1.767945559e-031 -2.975209951 -7.610770226
rfingers  -90 -7.125020027 -90
rthumb  -86.61159503 -8.027599693 -67.02436996
rfemur  -10.58913994 14.9785614 12.74076176
rtibia  0.3599592745 -0.9780153632 17.37302399
rfoot  1.645030022 -21.67642975 -35.40205002
rtoes  4.186268932 19.57453898 -102.3237484
lfemur  -3.950254679 -15.85876179 -21.98854637
ltibia  6.433198452 0.08269052207 7.701933384
lfoot  0.2511571348 -22.27357292 35.90377045
ltoes  -8.726770532 -18.0662148 -116.3342741
3
root  34.87094369 36.58974415 -14.14537955 9.754191399 -3.976352215 3.097532034
lowerback  -9.565491676 -0.02967121638 -0.209018603
upperback  -3.383697748 0.4390003979 -3.27418375
thorax  1.860489964 0.3794943094 -3.220340014
lowerneck  -14.58010006 -5.748760223 -4.64440012
upperneck  16.6284008 -8.085969925 7.957220078
head  8.08440876 -3.227410078 2.495310068
lclavicle  0 -4.497500157e-015 -2.743230041e-014
lhumerus  -48.27930069 31.89959908 63.07229996
lradius  0.001172923949 -6.507048965e-006 29.54949951
lwrist  3.192251654e-007 -3.790274832e-007 -29.28110123
lhand  -4.412260932e-031 -36.84140015 -10.50790024
lfingers  90 7.125020027 -90
lthumb  94.7532762 -25.34888405 100.9911416
rclavicle  0 -4.497500157e-015 -2.743230041e-014
rhumerus  -54.2477951 -44.83659744 -46.42660522
rradius  -5.16745672e-007 2.214343908e-008 33.70209885
rwrist  0.0003490542294 -0.002273720223 -138.227005
rhand  -1.767802125e-031 -2.884380102 -7.58355999
rfingers  -90 -7.125020027 -90
rthumb  -86.58434033 -8.057315508 -66.93446639
rfemur  -10.56611252 14.97016144 12.74586964
rtibia  0.3599592745 -0.9781528711 17.33943748
rfoot  1.660033107 -21.6667099 -35.40031815
rtoes  4.133481781 19.5853329 -102.1662321
lfemur  -3.955555439 -15.90237236 -21.9829483
ltibia  6.423918247 0.06259188801 7.727350235
lfoot  0.2459709197 -22.23829651 35.90122986
ltoes  -8.730316873 -18.06454556 -116.3457101
4
root  34.87138223 36.58859373 -14.14396031 9.752497673 -3.972697496 3.111532688
lowerback  -9.577633858 -0.02967121638 -0.1974906176
upperback  -3.383697748 0.4390003979 -3.271127939
thorax  1.867930055 0.3794943094 -3.230010033
lowerneck  -14.59570026 -5.76101017 -4.625050068
upperneck  16.64769936 -8.102479935 7.926189899
head  8.085989952 -3.236250162 2.479460001
lclavicle  0 -4.497500157e-015 -2.743230041e-014
lhumerus  -48.28739929 31.86800003 63.07130051
lradius  0.001172923949 -6.507048965e-006 29.54680061
lwrist  3.192251654e-007 -3.790274832e-007 -29.26309967
lhand  -4.412474444e-031 -36.8451004 -10.40429974
lfingers  90 7.125020027 -90
lthumb  94.73315096 -25.24698361 100.9857853
rclavicle  0 -4.497500157e-015 -2.743230041e-014
rhumerus  -54.28150177 -44.84989929 -46.45469666
rradius  -5.16745672e-007 2.214343908e-008 33.70629883
rwrist  0.0003490542294 -0.002273720223 -138.4290009
rhand  -1.767773088e-031 -2.865639925 -7.639100075
rfingers  -90 -7.125020027 -90
rthumb  -86.60290143 -8.007207182 -66.91926836
rfemur  -10.56021595 14.95250416 12.72794056
rtibia  0.3634796143 -0.9936398268 17.33835602
rfoot  1.652499437 -21.68902397 -35.40838242
rtoes  4.116659007 19.5887426 -102.1160506
lfemur  -3.881088972 -15.83705711 -22.02931023
ltibia  6.497803688 0.04298487306 7.597696781
lfoot  0.2429187447 -22.14184189 35.87097931
ltoes  -8.709355485 -18.07439955 -116.2781298
5
root  34.87165857 36.58817321 -14.14181717 9.762844086 -3.969326496 3.10736084
lowerback  -9.561357498 -0.02967121638 -0.207787022
upperback  -3.383697748 0.4390003979 -3.269323587
thorax  1.857030034 0.3794943094 -3.226730108
lowerneck  -14.56610012 -5.778289795 -4.640399933
upperneck  16.6226387 -8.124825478 7.937066078
head  8.073690414 -3.248350143 2.482480049
lclavicle  0 -4.497500157e-015 -2.743230041e-014
lhumerus  -48.30160141 31.87150002 63.03929901
lradius  0.001172923949 -6.507048965e-006 29.53160095
lwrist  3.192251654e-007 -3.790274832e-007 -29.30179977
lhand  -4.416052048e-031 -36.9070015 -10.66629982
lfingers  90 7.125020027 -90
lthumb  94.81749295 -25.50201483 101.0757362
rclavicle  0 -4.497500157e-015 -2.743230041e-014
rhumerus  -54.28900146 -44.8288002 -46.51369858
rradius  -5.16745672e-007 2.214343908e-008 33.73139954
rwrist  0.0003490542294 -0.002273720223 -138.4929962
rhand  -1.767598079e-031 -2.749979973 -7.59059
rfingers  -90 -7.125020027 -90
rthumb  -86.56258015 -8.057789603 -66.80391846
rfemur  -10.55682278 14.93993855 12.72175694
rtibia  0.3694137037 -1.003423691 17.31359673
rfoot  1.662772059 -21.70035744 -35.39725494
rtoes  4.117511011 19.58857026 -102.1185919
lfemur  -3.91970849 -15.8185358 -22.01211929
ltibia  6.472453117 0.09220037609 7.639893532
lfoot  0.2561617792 -22.27671432 35.87157822
ltoes  -8.695965129 -18.08067879 -116.2349774
6
root  34.87246356 36.58839248 -14.14007052 9.782871246 -3.981724739 3.105113029
lowerback  -9.53897953 -0.02967121638 -0.2256415486
upperback  -3.383697748 0.4390003979 -3.271899939
thorax  1.84502995 0.3794943094 -3.210479975
lowerneck  -14.5618 -5.800519943 -4.682010174
upperneck  16.63380051 -8.149950027 7.954259872
head  8.082240105 -3.260839939 2.492870092
lclavicle  0 -4.497500157e-015 -2.743230041e-014
lhumerus  -48.33089828 31.91830063 62.98849869
lradius  0.001172923949 -6.507048965e-006 29.50889969
lwrist  3.192251654e-007 -3.790274832e-007 -29.33749962
lhand  -4.41628348e-031 -36.9109993 -10.7159996
lfingers  90 7.125020027 -90
lthumb  94.82991905 -25.55066683 101.0844902
rclavicle  0 -4.497500157e-015 -2.743230041e-014
rhumerus  -54.31910324 -44.82920074 -46.53719711
rradius  -5.16745672e-007 2.214343908e-008 33.76679993
rwrist  0.0003490542294 -0.002273720223 -138.6100006
rhand  -1.767483896e-031 -2.671809912 -7.647109985
rfingers  -90 -7.125020027 -90
rthumb  -86.57081777 -8.00992263 -66.73093834
rfemur  -10.58947182 14.95787525 12.71259308
rtibia  0.3739982843 -0.9936160445 17.33333778
rfoot  1.654188156 -21.68870544 -35.39871597
rtoes  4.127377617 19.5865718 -102.1480227
lfemur  -3.958079815 -15.81041145 -22.00043869
ltibia  6.453607082 0.1146995872 7.660672665
lfoot  0.2479877174 -22.32955551 35.85857391
ltoes  -8.660381448 -18.09730638 -116.1203739
